<?xml version="1.0" encoding="utf-8"?>
<!-- Generator: Adobe Illustrator 25.4.1, SVG Export Plug-In . SVG Version: 6.00 Build 0)  -->
<svg version="1.1" id="Ebene_1" xmlns="http://www.w3.org/2000/svg" xmlns:xlink="http://www.w3.org/1999/xlink" x="0px" y="0px"
	 viewBox="0 0 16 16" style="enable-background:new 0 0 16 16;" xml:space="preserve">
<style type="text/css">
	.st0{fill-rule:evenodd;clip-rule:evenodd;fill:#FFFFFF;}
</style>
<path class="st0" d="M4.2,9.9c0,0.2,0.1,0.3,0.3,0.3h6.5l-1.7,1.7c-0.1,0.1-0.1,0.3,0,0.4s0.3,0.1,0.4,0l0,0l2.2-2.2
	c0.1-0.1,0.1-0.3,0-0.4c0,0,0,0,0,0L9.6,7.5c-0.1-0.1-0.3-0.1-0.4,0c-0.1,0.1-0.1,0.3,0,0.4l1.7,1.7H4.4C4.3,9.6,4.2,9.8,4.2,9.9z
	 M11.8,6.1c0,0.2-0.1,0.3-0.3,0.3H5.1l1.7,1.7c0.1,0.1,0.1,0.3,0,0.4c-0.1,0.1-0.3,0.1-0.4,0L4.2,6.3C4.1,6.2,4.1,6,4.2,5.9
	c0,0,0,0,0,0l2.2-2.2c0.1-0.1,0.3-0.1,0.4,0s0.1,0.3,0,0.4L5.1,5.8h6.5C11.7,5.8,11.8,5.9,11.8,6.1z"/>
</svg>
